<?xml version="1.0" encoding="utf-8"?>
<!-- Generator: Adobe Illustrator 24.1.2, SVG Export Plug-In . SVG Version: 6.00 Build 0)  -->
<svg version="1.1" id="Capa_1" xmlns="http://www.w3.org/2000/svg" xmlns:xlink="http://www.w3.org/1999/xlink" x="0px" y="0px"
	 viewBox="0 0 512 512" style="enable-background:new 0 0 512 512;" xml:space="preserve">
<style type="text/css">
	.st0{fill:#0000B2;}
</style>
<g>
	<g>
		<path d="M478.9,291.9c4.1,0,7.5-3.4,7.5-7.5V71.8c0-20.7-16.8-37.5-37.5-37.5h-32.1V22.8c0-12.6-10.2-22.8-22.8-22.8h-3.4
			c-12.6,0-22.8,10.2-22.8,22.8v11.5H144.3V22.8c0-12.6-10.2-22.8-22.8-22.8H118c-12.6,0-22.8,10.2-22.8,22.8v11.5H63.2
			c-20.7,0-37.5,16.8-37.5,37.5v402.7c0,20.7,16.8,37.5,37.5,37.5h385.7c20.7,0,37.5-16.8,37.5-37.5V314.4c0-4.1-3.4-7.5-7.5-7.5
			s-7.5,3.4-7.5,7.5v36.1c0,9.4-7.7,17.1-17.1,17.1h-50.1c-17.7,0-32.1,14.4-32.1,32.1v50.1c0,9.4-7.7,17.1-17.1,17.1H63.2
			c-12.4,0-22.5-10.1-22.5-22.5v-288h55.1c4.1,0,7.5-3.4,7.5-7.5s-3.4-7.5-7.5-7.5H40.6V71.8c0-12.4,10.1-22.5,22.5-22.5h32.1v22.1
			c0,12.6,10.2,22.8,22.8,22.8c4.1,0,7.5-3.4,7.5-7.5s-3.4-7.5-7.5-7.5c-4.3,0-7.8-3.5-7.8-7.8V49.3h257.5v22.1
			c0,12.6,10.2,22.8,22.8,22.8c4.1,0,7.5-3.4,7.5-7.5s-3.4-7.5-7.5-7.5c-4.3,0-7.8-3.5-7.8-7.8V49.3h66.1
			c12.4,0,22.5,10.1,22.5,22.5v69.6H125.7c-4.1,0-7.5,3.4-7.5,7.5s3.4,7.5,7.5,7.5h345.7v128C471.4,288.6,474.7,291.9,478.9,291.9
			L478.9,291.9z M387.1,449.9v-50.1c0-9.4,7.7-17.1,17.1-17.1h50.1c2.6,0,5.1-0.3,7.6-0.9l-75.7,75.7
			C386.7,455,387.1,452.5,387.1,449.9L387.1,449.9z M63.2,482h304.1c10,0,19.5-3.9,26.6-11l77.6-77.6v81.1
			c0,12.4-10.1,22.5-22.5,22.5H63.1c-12.4,0-22.5-10.1-22.5-22.5v0C46.9,479.2,54.7,482,63.2,482L63.2,482z M129.3,34.3h-19.1V22.8
			c0-4.3,3.5-7.8,7.8-7.8h3.4c4.3,0,7.8,3.5,7.8,7.8V34.3z M401.8,34.3h-19.1V22.8c0-4.3,3.5-7.8,7.8-7.8h3.4c4.3,0,7.8,3.5,7.8,7.8
			V34.3z"/>
	</g>
	<g>
		<path class="st0" d="M281.6,290.6c7.7,4.4,13.8,10.5,18.1,18.1c4.4,7.7,6.5,16.2,6.5,25.6c0,9.4-2.2,17.9-6.5,25.7
			c-4.4,7.7-10.4,13.8-18.1,18.1c-7.7,4.4-16.3,6.5-25.7,6.5c-9.4,0-17.9-2.2-25.6-6.5c-7.7-4.4-13.7-10.4-18-18.1
			c-4.4-7.7-6.5-16.3-6.5-25.7c0-2.2,0.7-4.1,2.2-5.6c1.5-1.5,3.2-2.2,5.4-2.2c2.2,0,4.1,0.8,5.6,2.3c1.5,1.5,2.3,3.3,2.3,5.5
			c0,6.5,1.5,12.4,4.6,17.7c3,5.4,7.2,9.5,12.5,12.6c5.3,3,11.2,4.6,17.6,4.6c6.5,0,12.4-1.5,17.7-4.6c5.4-3,9.5-7.2,12.6-12.6
			c3-5.4,4.6-11.3,4.6-17.7c0-6.5-1.5-12.4-4.6-17.7c-3-5.4-7.2-9.5-12.6-12.6c-5.4-3-11.3-4.6-17.7-4.6h-34.7
			c-2.1,0-3.9-0.8-5.5-2.3c-1.5-1.5-2.3-3.3-2.3-5.5v-54.3c0-2.2,0.8-4.1,2.3-5.5c1.5-1.5,3.3-2.2,5.5-2.2h69.6
			c2.1,0,3.9,0.8,5.5,2.3c1.5,1.5,2.3,3.3,2.3,5.5c0,2.1-0.8,3.9-2.3,5.5c-1.5,1.5-3.3,2.3-5.5,2.3h-62v38.8h27.2
			C265.3,283.9,273.8,286.2,281.6,290.6z"/>
	</g>
</g>
</svg>
