<?xml version="1.0" encoding="utf-8"?>
<!-- Generator: Adobe Illustrator 24.1.2, SVG Export Plug-In . SVG Version: 6.00 Build 0)  -->
<svg version="1.1" id="Capa_1" xmlns="http://www.w3.org/2000/svg" xmlns:xlink="http://www.w3.org/1999/xlink" x="0px" y="0px"
	 viewBox="0 0 512 512" style="enable-background:new 0 0 512 512;" xml:space="preserve">
<style type="text/css">
	.st0{fill:none;}
	.st1{fill:#0000B2;}
</style>
<g>
	<path d="M153.4,203.2c-2.4,0-4.7,0.4-6.8,1.1v-7.8c0-12-9.8-21.8-21.8-21.8c-2.6,0-5.1,0.5-7.4,1.3c-2.3-9.5-10.9-16.6-21.2-16.6
		S77.4,166.5,75,176c-2.3-0.8-4.8-1.3-7.4-1.3c-12,0-21.8,9.8-21.8,21.7L45.2,276l-10.5-10c-7.7-7.3-19.5-7.6-27.5-0.7
		c-8.5,7.3-9.6,20.2-2.4,28.8c1.9,2.3,56.2,67.2,58.2,69.1c-7.2,4.7-12,12.9-12,22.1v119.1c0,4.1,3.4,7.5,7.5,7.5s7.5-3.4,7.5-7.5
		v-88.6h94.1v88.6c0,4.1,3.4,7.5,7.5,7.5s7.5-3.4,7.5-7.5v-119c0-8.9-4.4-16.7-11.1-21.6c6.8-6.6,11.1-15.8,11.1-26V225
		C175.2,213,165.4,203.2,153.4,203.2z M160.2,400.9H66v-15.5c0-6.3,5.2-11.5,11.5-11.5h71.1c6.3,0,11.5,5.2,11.5,11.5L160.2,400.9z
		 M160.2,337.9c0,11.6-9.4,21-21,21H88.5c-6.2,0-12.1-2.7-16.1-7.5l-56.1-66.9c-1.9-2.3-1.7-5.8,0.6-7.8c2.2-1.9,5.4-1.8,7.4,0.2
		L42.4,294c3,2.9,7.5,3.7,11.3,2c3.9-1.6,6.4-5.4,6.4-9.6l0.7-90c0-3.7,3-6.8,6.8-6.8c3.7,0,6.8,3,6.8,6.8v60.8
		c0,4.1,3.4,7.5,7.5,7.5s7.5-3.4,7.5-7.5v-76.1c0-3.7,3-6.8,6.8-6.8s6.8,3,6.8,6.8v76.1c0,4.1,3.4,7.5,7.5,7.5s7.5-3.4,7.5-7.5
		v-60.8c0-3.7,3-6.8,6.8-6.8s6.8,3,6.8,6.8v60.8c0,4.1,3.4,7.5,7.5,7.5s7.5-3.4,7.5-7.5V225c0-3.7,3-6.8,6.8-6.8s6.8,3,6.8,6.8
		L160.2,337.9L160.2,337.9z M507.2,294.1c7.2-8.6,6.1-21.5-2.4-28.8c-8-6.9-19.9-6.6-27.5,0.7l-10.5,10l-0.6-79.5
		c0-12-9.8-21.8-21.8-21.8c-2.6,0-5.1,0.5-7.4,1.3c-2.3-9.5-10.9-16.6-21.2-16.6s-18.8,7.1-21.2,16.6c-2.3-0.8-4.8-1.3-7.4-1.3
		c-12,0-21.8,9.8-21.8,21.8v7.8c-2.1-0.7-4.4-1.1-6.8-1.1c-12,0-21.8,9.8-21.8,21.8v112.9c0,10.2,4.3,19.4,11.1,26
		c-6.7,4.8-11.1,12.7-11.1,21.6v119.1c0,4.1,3.4,7.5,7.5,7.5s7.5-3.4,7.5-7.5V416h71.6c4.1,0,7.5-3.4,7.5-7.5s-3.4-7.5-7.5-7.5
		h-71.6v-15.5c0-6.3,5.2-11.5,11.5-11.5h71.1c6.3,0,11.5,5.2,11.5,11.5v119.1c0,4.1,3.4,7.5,7.5,7.5s7.5-3.4,7.5-7.5V385.4
		c0-9.2-4.8-17.4-12-22.1C451,361.4,505.3,296.4,507.2,294.1z M439.6,351.4c-4,4.8-9.9,7.5-16.1,7.5h-50.6c-11.6,0-21-9.4-21-21V225
		c0-3.7,3-6.8,6.8-6.8s6.8,3,6.8,6.8v32.3c0,4.1,3.4,7.5,7.5,7.5s7.5-3.4,7.5-7.5v-60.8c0-3.7,3-6.8,6.8-6.8s6.8,3,6.8,6.8v60.8
		c0,4.1,3.4,7.5,7.5,7.5s7.5-3.4,7.5-7.5v-60.8v-15.3c0-3.7,3-6.8,6.8-6.8s6.8,3,6.8,6.8v76.1c0,4.1,3.4,7.5,7.5,7.5
		s7.5-3.4,7.5-7.5v-60.8c0-3.7,3-6.8,6.8-6.8s6.8,3,6.8,6.8l0.7,89.9c0,4.2,2.5,7.9,6.4,9.6c3.9,1.6,8.3,0.8,11.3-2l18.1-17.1
		c2.1-2,5.3-2,7.4-0.2c2.3,2,2.6,5.5,0.6,7.8L439.6,351.4z"/>
	<g>
		<path class="st0" d="M308.3,214.1L308.3,214.1L308.3,214.1z"/>
		<path class="st0" d="M357.6,122.7c-2.4-2.1-6-2-8.4,0.2L330,141.2c-3,2.9-7.5,3.7-11.3,2c-3.9-1.6-6.4-5.4-6.4-9.6l-0.7-95
			c0-4.2-3.4-7.6-7.5-7.6c-4.2,0-7.5,3.4-7.5,7.5v64c0,4.1-3.4,7.5-7.5,7.5s-7.5-3.4-7.5-7.5v-64v-16c0-4.2-3.4-7.5-7.5-7.5
			s-7.5,3.4-7.5,7.5v16.1v64c0,4.1-3.4,7.5-7.5,7.5s-7.5-3.4-7.5-7.5v-64c0-4.2-3.4-7.5-7.5-7.5c-4.2,0-7.5,3.4-7.5,7.5v64
			c0,4.1-3.4,7.5-7.5,7.5s-7.5-3.4-7.5-7.5v-34c0-4.2-3.4-7.5-7.5-7.5s-7.5,3.4-7.5,7.5l0,0v118.8c0,12.4,10.1,22.5,22.5,22.5h53.3
			c6.7,0,13-2.9,17.2-8l59.1-70.4C360.6,128.8,360.2,124.9,357.6,122.7z"/>
		<path class="st0" d="M306.1,237.4c0-6.9-5.6-12.5-12.5-12.5h-74.8c-6.9,0-12.5,5.6-12.5,12.5V254h99.8V237.4z"/>
		<path class="st1" d="M367.4,111.3c-8.3-7.1-20.5-6.8-28.4,0.7l-11.7,11.1l-0.6-84.5c0-12.4-10.1-22.5-22.5-22.5
			c-2.9,0-5.6,0.5-8.1,1.5C293.7,7.5,284.7,0,274,0s-19.7,7.5-22,17.6c-2.5-1-5.2-1.5-8.1-1.5c-12.4,0-22.5,10.1-22.5,22.5v8.8
			c-2.4-0.8-4.9-1.3-7.5-1.3c-12.4,0-22.5,10.1-22.5,22.5v118.8c0,10.8,4.6,20.5,11.9,27.4l105.1-0.6c2.4-2.3,59.3-70.3,61.5-73.1
			C377.3,132.2,376.2,118.8,367.4,111.3z M358.4,131.4l-59.1,70.4c-4.3,5.1-10.6,8-17.2,8h-53.3c-12.4,0-22.5-10.1-22.5-22.5V68.6
			l0,0c0-4.2,3.4-7.5,7.5-7.5s7.5,3.4,7.5,7.5v34c0,4.1,3.4,7.5,7.5,7.5s7.5-3.4,7.5-7.5v-64c0-4.2,3.4-7.5,7.5-7.5
			c4.2,0,7.5,3.4,7.5,7.5v64c0,4.1,3.4,7.5,7.5,7.5c4.1,0,7.5-3.4,7.5-7.5v-64V22.5c0-4.2,3.4-7.5,7.5-7.5s7.5,3.4,7.5,7.5v16.1v64
			c0,4.1,3.4,7.5,7.5,7.5s7.5-3.4,7.5-7.5v-64c0-4.2,3.4-7.5,7.5-7.5c4.2,0,7.5,3.4,7.5,7.6l0.7,95c0,4.2,2.5,7.9,6.4,9.6
			c3.9,1.6,8.3,0.8,11.3-2L349,123c2.3-2.2,5.9-2.3,8.4-0.2C360.2,124.9,360.6,128.8,358.4,131.4z"/>
	</g>
	<path d="M191.3,237.4c0,89,0,178.1,0,267.1c0,4.1,3.4,7.5,7.5,7.5s7.5-3.4,7.5-7.5V269h99.8v235.5c0,4.1,3.4,7.5,7.5,7.5
		s7.5-3.4,7.5-7.5V237.4c0-9.8-5.1-18.3-12.8-23.2l0,0c-7.8-4.3-17.8-4.3-26.2-4.3c-16.5,0-30.2,0-53.3,0c-17.9,0-21.6,2.3-25.6,4.9
		C197.8,218.2,191.3,227.9,191.3,237.4z M306.1,254h-99.8v-16.6c0-6.9,5.6-12.5,12.5-12.5h74.8c6.9,0,12.5,5.6,12.5,12.5V254z"/>
</g>
</svg>
